PathFileType	4	(X/Y/Z)	/Users/itak/Documents/Research/Walk-IL/dataset/trc/00384_00012.trc
DataRate	CameraRate	NumFrames	NumMarkers	Units	OrigDataRate	OrigDataStartFrame	OrigNumFrames
100.000000	100.000000	4	55	mm	100.000000	417	557
Frame#	Time	RPSI			LPSI			L3			STRN			T10			C7			CLAV			RBAK			LBAK			LSHO			LUPA			LAEL			LAOL			LWTS			LWPS			LFRA			LIFD			LHPS			LHTS			RSHO			RUPA			RAEL			RAOL			RWPS			RFRA			RIFD			RHPS			RBHD			LFHD			RFHD			LBHD			LHIP			RHIP			RASI			LASI			LKNE			LTHI			LANK			LTIP			LTOE			LMT1			LMT5			LHEE			RKNE			RTHI			RANK			RTIP			RTOE			RMT1			RMT5			RHEE			RHTS			RWTS			*53			*54			
		X1	Y1	Z1	X2	Y2	Z2	X3	Y3	Z3	X4	Y4	Z4	X5	Y5	Z5	X6	Y6	Z6	X7	Y7	Z7	X8	Y8	Z8	X9	Y9	Z9	X10	Y10	Z10	X11	Y11	Z11	X12	Y12	Z12	X13	Y13	Z13	X14	Y14	Z14	X15	Y15	Z15	X16	Y16	Z16	X17	Y17	Z17	X18	Y18	Z18	X19	Y19	Z19	X20	Y20	Z20	X21	Y21	Z21	X22	Y22	Z22	X23	Y23	Z23	X24	Y24	Z24	X25	Y25	Z25	X26	Y26	Z26	X27	Y27	Z27	X28	Y28	Z28	X29	Y29	Z29	X30	Y30	Z30	X31	Y31	Z31	X32	Y32	Z32	X33	Y33	Z33	X34	Y34	Z34	X35	Y35	Z35	X36	Y36	Z36	X37	Y37	Z37	X38	Y38	Z38	X39	Y39	Z39	X40	Y40	Z40	X41	Y41	Z41	X42	Y42	Z42	X43	Y43	Z43	X44	Y44	Z44	X45	Y45	Z45	X46	Y46	Z46	X47	Y47	Z47	X48	Y48	Z48	X49	Y49	Z49	X50	Y50	Z50	X51	Y51	Z51	X52	Y52	Z52	X53	Y53	Z53	X54	Y54	Z54	X55	Y55	Z55	

418	4.17	827.8936767578125	931.6627197265625	118.5563430786133	813.6983642578125	920.194091796875	-11.91824436187744	816.31201171875	1004.06640625	50.15774536132812	1028.993530273438	1181.379760742188	35.17269515991211	787.0173950195312	1104.39013671875	42.54607391357422	800.01708984375	1354.899658203125	28.02266120910645	961.3872680664062	1293.391967773438	36.58975982666016	770.9793701171875	1203.0009765625	85.5791015625	784.5967407226562	1320.72900390625	-72.32523345947266	869.3984985351562	1347.305297851562	-123.438835144043	845.3107299804688	1225.530517578125	-188.6288146972656	879.9142456054688	1035.737548828125	-219.3845367431641	838.5197143554688	1003.163024902344	-151.2053680419922	1059.397338867188	906.5656127929688	-220.6188049316406	1009.578369140625	870.2764282226562	-276.7231140136719	928.9317626953125	957.7223510742188	-241.8266754150391	1155.774169921875	761.9215698242188	-259.3921203613281	1070.242919921875	808.9572143554688	-288.4089660644531	1120.066650390625	837.9255981445312	-261.1711120605469	846.4215087890625	1334.613891601562	184.8571929931641	823.4319458007812	1271.180297851562	234.4778747558594	781.6796875	1014.818725585938	260.1993103027344	793.3642578125	1007.783020019531	165.9481811523438	800.3697509765625	782.6954345703125	307.5981140136719	787.1282348632812	949.6273193359375	281.6342468261719	817.5859375	613.6767578125	261.8504943847656	782.1941528320312	694.734619140625	305.6852722167969	841.2307739257812	1545.0146484375	127.3664398193359	973.8887329101562	1557.028198242188	-21.8281078338623	972.4735717773438	1559.23046875	101.7575988769531	825.4962158203125	1540.511108398438	-33.3817138671875	889.3087158203125	910.0192260742188	-134.6084136962891	926.0928344726562	923.4356689453125	223.2014923095703	1047.602905273438	943.5379028320312	151.2853240966797	1004.653503417969	914.8338623046875	-109.3942642211914	916.7528076171875	422.1910705566406	-94.05547332763672	920.4041748046875	560.9946899414062	-109.4300765991211	558.360595703125	136.5984039306641	-52.45352554321289	731.6072387695312	269.6275939941406	-84.88563537597656	707.7457275390625	30.92461776733398	41.44134902954102	652.2916870117188	68.70025634765625	55.98613739013672	645.764404296875	46.41765594482422	-45.80172729492188	531.4900512695312	174.2532196044922	-1.97705602645874	1131.7978515625	468.5469360351562	165.03515625	1064.106323242188	720.249755859375	209.1769714355469	1164.055297851562	44.88749313354492	124.9096298217773	1169.832275390625	346.4801330566406	143.5985107421875	1332.838623046875	27.0307788848877	35.60711669921875	1253.065673828125	35.55858993530273	17.9130859375	1247.079345703125	33.85792541503906	118.2957229614258	1086.5732421875	33.97605895996094	81.62372589111328	846.2069091796875	675.0879516601562	288.4299011230469	861.9007568359375	780.3444213867188	266.3985290527344	nan	nan	nan	nan	nan	nan	
419	4.18	837.7713623046875	933.4076538085938	119.0736312866211	823.469482421875	920.985107421875	-11.33621406555176	826.0833740234375	1005.721374511719	50.49670791625977	1038.458740234375	1183.627563476562	35.16618347167969	797.198974609375	1105.705688476562	42.5595703125	808.8612670898438	1356.251831054688	28.16610527038574	970.4786987304688	1295.473388671875	36.54810333251953	780.9389038085938	1204.340942382812	85.97397613525391	793.4302978515625	1322.045532226562	-72.15220642089844	878.0758056640625	1348.801391601562	-123.3614273071289	854.1998901367188	1227.12158203125	-188.5747985839844	888.7493286132812	1036.833740234375	-219.0213928222656	846.041748046875	1005.100463867188	-150.851806640625	1063.5009765625	899.5155639648438	-218.9136199951172	1012.023071289062	864.8096313476562	-274.4700927734375	935.5709228515625	956.1538696289062	-240.8327026367188	1152.312866210938	749.4385375976562	-255.2215270996094	1069.548461914062	800.338134765625	-285.1872863769531	1120.79052734375	827.025634765625	-258.1877746582031	855.5932006835938	1336.398071289062	184.9216003417969	833.1878051757812	1272.810546875	234.7710571289062	794.0540771484375	1016.096130371094	261.1922607421875	805.2698974609375	1008.965393066406	166.9320983886719	816.4157104492188	784.06005859375	308.7886962890625	800.4371948242188	950.8623046875	282.6762084960938	837.694580078125	615.5062255859375	263.18505859375	800.25341796875	695.7150268554688	306.8450317382812	849.7047119140625	1546.359619140625	127.5630950927734	982.3494873046875	1558.91796875	-21.64436340332031	980.9278564453125	1560.938232421875	101.9744262695312	833.9707641601562	1542.060302734375	-33.20364761352539	898.5537719726562	910.5345458984375	-133.9281158447266	935.8154907226562	925.9482421875	223.8509216308594	1057.46337890625	946.087646484375	152.0957489013672	1014.501525878906	916.5546264648438	-108.4535751342773	933.8911743164062	423.1792907714844	-96.18627166748047	935.3211669921875	561.4673461914062	-110.1245956420898	569.8402709960938	146.1124114990234	-54.28776550292969	745.8914184570312	274.2988891601562	-86.69523620605469	710.6510009765625	29.9919376373291	40.62677764892578	659.0029907226562	72.42607116699219	54.58536911010742	650.9840087890625	49.59375381469727	-47.17658615112305	545.6198120117188	184.861328125	-3.711319446563721	1138.132568359375	468.8432312011719	165.2499694824219	1073.526489257812	721.5985107421875	209.9029388427734	1164.266723632812	44.91902160644531	124.7618713378906	1174.665649414062	346.1846923828125	143.6053771972656	1332.974731445312	26.8873176574707	35.45515441894531	1253.091430664062	35.51622772216797	17.7147159576416	1247.129028320312	34.08403778076172	118.2033081054688	1086.587524414062	34.30405044555664	81.71505737304688	864.966552734375	677.6295166015625	289.9965515136719	878.1472778320312	783.056396484375	267.8063049316406	nan	nan	nan	nan	nan	nan	
420	4.19	847.4613037109375	935.0460815429688	119.835319519043	832.8079833984375	921.7052612304688	-10.48050975799561	835.4718627929688	1007.425537109375	51.1197509765625	1047.690551757812	1185.7001953125	35.08138656616211	807.2219848632812	1107.024658203125	42.73712921142578	817.6211547851562	1357.625854492188	28.33393096923828	979.4466552734375	1297.43896484375	36.44292449951172	790.7832641601562	1205.727172851562	86.51740264892578	802.08837890625	1323.322998046875	-71.93134307861328	886.5403442382812	1350.171997070312	-123.2924118041992	862.8577880859375	1228.574462890625	-188.494140625	897.3637084960938	1037.874633789062	-218.6592712402344	853.515869140625	1006.854125976562	-150.5060577392578	1067.035766601562	892.5953979492188	-217.184814453125	1013.938171386719	859.5188598632812	-272.1502075195312	941.865966796875	954.5872192382812	-239.7840576171875	1147.950561523438	737.3870239257812	-250.7149963378906	1068.129272460938	791.9952392578125	-281.7736206054688	1120.920654296875	816.749755859375	-255.3571929931641	864.7938232421875	1338.22509765625	184.9990539550781	842.9479370117188	1274.51953125	235.1308288574219	806.3679809570312	1017.453002929688	262.2616882324219	817.0653686523438	1010.213134765625	167.9909820556641	832.4902954101562	785.5220947265625	309.9889221191406	813.7076416015625	952.1746215820312	283.7810363769531	858.0599365234375	617.5797729492188	264.404296875	818.4799194335938	696.8052368164062	307.9463806152344	858.0577392578125	1547.672241210938	127.6976928710938	990.7095336914062	1560.796752929688	-21.51362800598145	989.2783203125	1562.64501953125	102.1412887573242	842.3485107421875	1543.56298828125	-33.07895660400391	907.3477783203125	911.0855712890625	-133.0925750732422	945.4994506835938	928.224365234375	224.5382537841797	1067.123779296875	948.3610229492188	152.6586303710938	1023.763427734375	918.226318359375	-107.7154846191406	951.2550048828125	424.2431335449219	-98.29930877685547	950.2081298828125	562.031982421875	-110.9015960693359	582.2868041992188	155.4656372070312	-55.98603820800781	760.9324951171875	278.681884765625	-88.47503662109375	714.8502197265625	29.00046539306641	39.38496017456055	666.9148559570312	76.41733551025391	53.08606719970703	657.1394653320312	53.27854156494141	-48.69103240966797	560.6445922851562	194.9845275878906	-5.219442367553711	1144.002685546875	469.0040893554688	165.3046875	1082.548583984375	722.7232055664062	210.3533172607422	1164.498046875	44.96125793457031	124.5832214355469	1179.122924804688	345.8380432128906	143.4907684326172	1333.101440429688	26.7664909362793	35.31443405151367	1253.1337890625	35.46195983886719	17.49944686889648	1247.182495117188	34.31344604492188	118.0682983398438	1086.565795898438	34.54294586181641	81.69232177734375	883.8408813476562	680.39013671875	291.50048828125	894.3809204101562	785.9682006835938	269.2203369140625	nan	nan	nan	nan	nan	nan	
421	4.2	856.9442749023438	936.5736694335938	120.8234481811523	841.7310791015625	922.3307495117188	-9.376593589782715	844.538330078125	1009.171447753906	52.01901245117188	1056.675537109375	1187.5556640625	34.90335083007812	817.012939453125	1108.334716796875	43.09110641479492	826.2971801757812	1359.011474609375	28.52901458740234	988.2852172851562	1299.244018554688	36.27088928222656	800.4772338867188	1207.145751953125	87.22461700439453	810.5651245117188	1324.54443359375	-71.65932464599609	894.787841796875	1351.387573242188	-123.2307510375977	871.2616577148438	1229.846435546875	-188.3627624511719	905.6734619140625	1038.805908203125	-218.2562103271484	860.9078979492188	1008.387084960938	-150.1036376953125	1069.995727539062	885.857666015625	-215.4230041503906	1015.320922851562	854.4282836914062	-269.7427978515625	947.76171875	953.0045166015625	-238.6494140625	1142.789184570312	725.916015625	-245.9394226074219	1066.029418945312	784.0132446289062	-278.1800231933594	1120.43408203125	807.1104125976562	-252.6438598632812	874.0418701171875	1340.070068359375	185.1012420654297	852.7178955078125	1276.27001953125	235.5681610107422	818.6119995117188	1018.854553222656	263.4131164550781	828.7131958007812	1011.488830566406	169.1293487548828	848.5712890625	787.0714721679688	311.2022399902344	826.9255981445312	953.5325927734375	284.9533996582031	878.5748291015625	619.8764038085938	265.5491943359375	836.8257446289062	698.0084228515625	309.0185852050781	866.30712890625	1548.955078125	127.7712173461914	998.9630126953125	1562.6328125	-21.4446964263916	997.5313720703125	1564.33349609375	102.2460403442383	850.623291015625	1545.002563476562	-33.00803756713867	915.718017578125	911.6343383789062	-132.1249847412109	955.1371459960938	930.2576904296875	225.2447814941406	1076.583374023438	950.3287963867188	152.9639282226562	1032.468383789062	919.8213500976562	-107.2039031982422	968.7194213867188	425.4083862304688	-100.3461303710938	965.0028686523438	562.702880859375	-111.7461318969727	595.60498046875	164.4291381835938	-57.48493576049805	776.604248046875	282.776611328125	-90.21543884277344	720.6832885742188	28.09955406188965	37.57691192626953	676.2549438476562	80.58364105224609	51.44642639160156	664.4203491210938	57.37067794799805	-50.33966445922852	576.3826293945312	204.4065093994141	-6.436734676361084	1149.479736328125	469.0592346191406	165.2016143798828	1091.176391601562	723.6444702148438	210.5409240722656	1164.754150390625	45.03067398071289	124.3825531005859	1183.238159179688	345.4584045410156	143.2595825195312	1333.234130859375	26.62179374694824	35.1779899597168	1253.2001953125	35.37800979614258	17.27994918823242	1247.245971679688	34.5180549621582	117.9088516235352	1086.531127929688	34.71358489990234	81.59571838378906	902.7628173828125	683.3446655273438	292.9567260742188	910.547119140625	789.0361938476562	270.61865234375	nan	nan	nan	nan	nan	nan	
